<svg xmlns="http://www.w3.org/2000/svg" version="1.1" xmlns:xlink="http://www.w3.org/1999/xlink" xmlns:svgjs="http://svgjs.dev/svgjs" width="1000" height="196" viewBox="0 0 1000 196"><g transform="matrix(1,0,0,1,-0.6060606060606233,0.5497977162467294)"><svg viewBox="0 0 396 78" data-background-color="#ffffff" preserveAspectRatio="xMidYMid meet" height="196" width="1000" xmlns="http://www.w3.org/2000/svg" xmlns:xlink="http://www.w3.org/1999/xlink"><g id="tight-bounds" transform="matrix(1,0,0,1,0.2400000000000091,-0.21879705034308472)"><svg viewBox="0 0 395.52 78.43759410068614" height="78.43759410068614" width="395.52"><g><svg viewBox="0 0 444.65092944117856 88.181" height="78.43759410068614" width="395.52"><g><svg viewBox="0 0 444.65092944117856 88.181" height="88.181" width="444.65092944117856"><g><svg viewBox="0 0 444.65092944117856 88.181" height="88.181" width="444.65092944117856"><g><svg viewBox="0 0 444.65092944117856 88.181" height="88.181" width="444.65092944117856"><g><svg><g></g><g></g></svg></g><g><svg><g><svg></svg></g><g></g></svg></g><g id="text-0"><svg viewBox="0 0 444.65092944117856 88.181" height="88.181" width="444.65092944117856"><g transform="matrix(1,0,0,1,0,15.340499999999999)"><svg width="153.55" viewBox="1.75 -41.5 153.54 42" height="42" data-palette-color="#eec372"><path d="M35-27.8L35-27.8Q35-22.4 30.8-19.58 26.6-16.75 18.6-16.75L18.6-16.75 14.35-16.75 14.35-7.95Q14.35-6.05 14.6-4.88 14.85-3.7 15.65-3.05 16.45-2.4 17.85-2.2 19.25-2 21.6-2L21.6-2 21.6 0 1.75 0 1.75-2Q3.4-2.05 4.45-2.3 5.5-2.55 6.05-3.15 6.6-3.75 6.8-4.85 7-5.95 7-7.7L7-7.7 7-30.8Q7-32.55 6.83-33.63 6.65-34.7 6.15-35.33 5.65-35.95 4.73-36.18 3.8-36.4 2.3-36.5L2.3-36.5 2.3-38.5 19.6-38.5Q27.2-38.5 31.1-35.8 35-33.1 35-27.8ZM14.35-34.85L14.35-19.75 17.6-19.75Q22.45-19.75 24.7-21.7 26.95-23.65 26.95-27.85L26.95-27.85Q26.95-31.6 25.05-33.65 23.15-35.7 19.1-35.7L19.1-35.7 15.25-35.7Q14.35-35.7 14.35-34.85L14.35-34.85ZM48.75-10.15L48.75-7.75Q48.75-5.8 48.92-4.67 49.1-3.55 49.65-2.95 50.2-2.35 51.25-2.18 52.3-2 54.05-2L54.05-2 54.05 0 37.35 0 37.35-2Q38.85-2.1 39.75-2.3 40.65-2.5 41.1-3.1 41.55-3.7 41.67-4.83 41.8-5.95 41.8-7.85L41.8-7.85 41.8-13.95Q41.8-17.05 41.65-18.9 41.5-20.75 41-21.75 40.5-22.75 39.57-23.08 38.65-23.4 37.15-23.4L37.15-23.4 37.15-25.15 47.15-27 47.95-21.25 48.15-21.25Q49.5-23.9 51.7-25.45 53.9-27 56.35-27L56.35-27Q58.25-27 59.45-26.05 60.65-25.1 60.65-23.65L60.65-23.65Q60.65-22.05 59.72-20.95 58.8-19.85 57.2-19.85L57.2-19.85Q56.45-19.85 55.85-20.15 55.25-20.45 54.77-20.83 54.3-21.2 53.82-21.53 53.35-21.85 52.85-21.85L52.85-21.85Q51.9-21.85 51.05-20.6 50.2-19.35 49.65-17.25L49.65-17.25Q49.25-15.75 49-13.88 48.75-12 48.75-10.15L48.75-10.15ZM77.95-9.5L77.95-14.25Q73.75-12.35 71.62-10.73 69.5-9.1 69.5-7.35L69.5-7.35Q69.5-5.9 70.3-5.05 71.09-4.2 72.3-4.2L72.3-4.2Q73.5-4.2 74.55-4.63 75.59-5.05 76.34-5.75 77.09-6.45 77.52-7.43 77.95-8.4 77.95-9.5L77.95-9.5ZM70.9-13.85L77.95-16.9 77.95-19Q77.95-21.9 76.92-23.23 75.9-24.55 73.75-24.55L73.75-24.55Q72.3-24.55 71.55-23.78 70.8-23 70.15-21.2L70.15-21.2Q69.7-19.95 68.87-19.25 68.05-18.55 66.59-18.55L66.59-18.55Q65.2-18.55 64.45-19.4 63.7-20.25 63.7-21.8L63.7-21.8Q63.7-24.2 66.32-25.6 68.95-27 74.25-27L74.25-27Q79.84-27 82.25-24.98 84.65-22.95 84.65-18.2L84.65-18.2 84.65-7.25Q84.65-3 86.34-3L86.34-3Q87.3-3 88.09-3.65L88.09-3.65 88.84-2.2Q88.15-0.95 86.67-0.23 85.2 0.5 83.34 0.5L83.34 0.5Q81.05 0.5 79.84-0.9 78.65-2.3 78.65-4.85L78.65-4.85 78.4-4.85Q76.95-2.25 74.65-0.9 72.34 0.45 69.4 0.45L69.4 0.45Q66.25 0.45 64.34-1.33 62.45-3.1 62.45-5.95L62.45-5.95Q62.45-8.15 64.4-10.08 66.34-12 70.9-13.85L70.9-13.85ZM113.49 0.5L113.49-3.2 113.29-3.2Q109.84 0.5 104.34 0.5L104.34 0.5Q101.49 0.5 99.12-0.5 96.74-1.5 95.02-3.3 93.29-5.1 92.34-7.58 91.39-10.05 91.39-13.05L91.39-13.05Q91.39-16.05 92.37-18.6 93.34-21.15 95.02-23.03 96.69-24.9 99.02-25.95 101.34-27 104.04-27L104.04-27Q106.54-27 108.47-26.25 110.39-25.5 111.84-23.7L111.84-23.7 112.04-23.7 112.04-27.95Q112.04-30.9 111.97-33.02 111.89-35.15 111.74-35.8L111.74-35.8Q111.49-36.85 110.22-37.33 108.94-37.8 106.29-37.8L106.29-37.8 106.29-39.5 118.94-41.5 118.94-12.9Q118.94-9.15 119.02-7.13 119.09-5.1 119.29-4.05L119.29-4.05Q119.39-3.4 119.59-3 119.79-2.6 120.19-2.38 120.59-2.15 121.27-2.08 121.94-2 122.99-2L122.99-2 122.99-0.05 113.49 0.5ZM111.94-12.4L111.94-14.35Q111.94-16.25 111.54-17.88 111.14-19.5 110.34-20.75L110.34-20.75Q109.44-22.2 108.04-22.95 106.64-23.7 105.04-23.7L105.04-23.7Q102.09-23.7 100.54-21 98.99-18.3 98.99-13.15L98.99-13.15Q98.99-7.95 100.54-5.15 102.09-2.35 104.99-2.35L104.99-2.35Q106.64-2.35 108.14-3.2 109.64-4.05 110.59-5.5L110.59-5.5Q111.29-6.6 111.62-8.22 111.94-9.85 111.94-12.4L111.94-12.4ZM140.54-27L140.54-27Q143.54-27 146.22-25.98 148.89-24.95 150.92-23.15 152.94-21.35 154.12-18.88 155.29-16.4 155.29-13.45L155.29-13.45Q155.29-10.4 154.12-7.85 152.94-5.3 150.92-3.45 148.89-1.6 146.22-0.55 143.54 0.5 140.54 0.5L140.54 0.5Q137.59 0.5 134.94-0.53 132.29-1.55 130.29-3.4 128.29-5.25 127.14-7.83 125.99-10.4 125.99-13.45L125.99-13.45Q125.99-16.4 127.14-18.9 128.29-21.4 130.29-23.2 132.29-25 134.94-26 137.59-27 140.54-27ZM140.54-24.1L140.54-24.1Q139.04-24.1 137.79-23.33 136.54-22.55 135.67-21.15 134.79-19.75 134.32-17.78 133.84-15.8 133.84-13.4L133.84-13.4Q133.84-10.9 134.32-8.9 134.79-6.9 135.67-5.5 136.54-4.1 137.77-3.33 138.99-2.55 140.54-2.55L140.54-2.55Q142.09-2.55 143.37-3.33 144.64-4.1 145.54-5.53 146.44-6.95 146.94-8.95 147.44-10.95 147.44-13.4L147.44-13.4Q147.44-15.8 146.94-17.75 146.44-19.7 145.54-21.13 144.64-22.55 143.37-23.33 142.09-24.1 140.54-24.1Z" opacity="1" transform="matrix(1,0,0,1,0,0)" fill="#eec372" class="undefined-gc-0"></path></svg></g><g><svg xmlns="http://www.w3.org/2000/svg" xmlns:xlink="http://www.w3.org/1999/xlink" version="1.1" x="174.369" y="0" viewBox="11.999903731921492 4.99977745000462 76.00009626807851 90.00135422162576" enable-background="new 0 0 100 100" xml:space="preserve" height="88.181" width="74.46292944117849" class="icon-ju-0" data-fill-palette-color="accent" id="ju-0"><path d="M83.388 38.171c-1.955 1.011-14.907 2.056-33.198 2.056-20.192 0-32.312-1.229-33.267-2.078-0.145-0.225-0.421-0.327-0.676-0.252-0.256 0.075-0.432 0.31-0.432 0.577v36.271c0 0.229 0.131 0.432 0.322 0.532 0.479 0.571 2.409 1.227 10.199 1.797 6.332 0.463 14.75 0.716 23.701 0.716 8.953 0 17.371-0.253 23.704-0.716 7.784-0.57 9.718-1.224 10.198-1.797 0.192-0.101 0.324-0.3 0.324-0.532V38.705c0-0.21-0.109-0.404-0.289-0.514C83.796 38.081 83.572 38.076 83.388 38.171zM83.063 74.328c-0.057 0.062-0.102 0.132-0.13 0.209-1.29 0.874-13.223 2.05-32.895 2.05-19.671 0-31.603-1.176-32.893-2.05-0.028-0.077-0.072-0.147-0.128-0.207V39.433c5.892 1.971 31.959 1.996 33.172 1.996 15.645 0 28.856-0.771 32.873-1.873V74.328zM87.938 35.843c-0.84-1.701-1.68-3.402-2.521-5.104-0.514-1.042-1.029-2.084-1.544-3.126-0.223-0.451-0.417-1.132-0.879-1.402-0.929-0.543-1.858-1.086-2.787-1.63-0.162-0.095-0.6-0.236-0.6-0.446 0-1.244-0.118-1.171 1.194-1.39 1.758-0.295 3.205-0.624 4.241-2.197 1.059-1.611 1.485-3.64 1.587-5.539 0.162-2.999-0.415-5.988-3.021-7.705-1.7-1.12-4.521-1.092-6.446-1.285-9.872-0.989-19.872-1.062-29.785-1.005C38.201 5.066 28.72 4.979 19.632 6.429c-1.562 0.249-2.852 0.586-4.09 1.535-3.011 2.308-2.45 8.192-1.163 11.226 0.574 1.353 1.553 2.762 3.047 3.171 0.798 0.22 1.669 0.327 2.487 0.452 0.658 0.102 0.56-0.055 0.56 0.429 0 0.213 0.108 0.804 0 0.99-0.321 0.551-1.872 1.095-2.421 1.416-0.577 0.338-1.15 0.559-1.453 1.174-1.029 2.082-2.058 4.164-3.086 6.246-0.444 0.898-1.434 2.17-1.434 3.219v38.388c0 0.591-0.214 1.646 0.062 2.212 1.239 2.523 2.352 5.126 3.34 7.758 0.573 1.526 0.772 3.518 2.091 4.553 1.187 0.933 2.551 1.625 3.944 2.191 3.248 1.322 6.739 2.026 10.195 2.536 6.19 0.911 12.356 0.927 18.589 1.05 6.604 0.129 13.309-0.205 19.822-1.329 3.338-0.578 6.735-1.364 9.796-2.858 1.186-0.58 2.334-1.282 3.294-2.195 0.504-0.481 0.65-1.883 0.877-2.541 0.382-1.097 0.798-2.184 1.234-3.259 0.623-1.538 1.288-3.058 1.984-4.564C87.517 77.772 88 77.118 88 76.59V36.142C88 36.036 88 35.969 87.938 35.843zM27.915 6.825c7.361-0.483 14.748-0.617 22.124-0.617 7.241 0 14.491 0.132 21.719 0.591 3.437 0.219 7.272 0.216 10.597 1.245-2.019 0.636-4.258 0.731-6.353 0.927-2.769 0.258-5.549 0.417-8.325 0.545-5.875 0.271-11.757 0.37-17.638 0.37-5.882 0-11.766-0.101-17.642-0.37-2.78-0.128-5.563-0.287-8.335-0.547-2.086-0.195-4.324-0.294-6.337-0.925C20.926 7.054 24.606 7.043 27.915 6.825zM18.244 21.282c-2.497-0.153-3.321-3.77-3.532-5.717-0.206-1.896-0.145-4.147 0.86-5.836 0.829-1.393 1.63-0.536 2.952-0.264 3.388 0.678 6.893 0.862 10.334 1.069 10.286 0.618 20.62 0.676 30.919 0.447 4.64-0.103 9.28-0.272 13.908-0.61 3.026-0.222 6.554-0.208 9.42-1.331 2.933-1.211 2.217 7.576 1.811 8.9-0.549 1.79-1.43 3.025-3.292 3.428-1.915 0.413-3.893 0.589-5.841 0.76-11.073 0.976-22.278 1.021-33.385 0.815-5.747-0.086-11.506-0.287-17.235-0.761C22.858 21.993 20.497 21.821 18.244 21.282zM86.798 76.483c-1.476 3.056-2.832 6.194-3.925 9.407-0.277 0.814-0.358 1.761-1.045 2.313-0.479 0.383-0.994 0.721-1.528 1.024-1.333 0.761-2.774 1.319-4.235 1.779-6.304 1.989-13.114 2.487-19.687 2.708-4.902 0.164-9.844 0.154-14.742-0.087-6.561-0.322-13.569-0.867-19.711-3.37-1.209-0.493-2.395-1.087-3.44-1.874-1.387-1.045-1.739-3.853-2.379-5.466-0.665-1.677-1.383-3.335-2.138-4.976-0.207-0.451-0.687-1.08-0.687-1.59V38.204c0-0.591-0.139-1.375 0-1.955 0.396-1.655 1.701-3.444 2.453-4.965 0.521-1.055 1.194-3.587 2.25-4.205 0.992-0.58 1.984-1.161 2.977-1.741 0.918-0.537 0.714-1.299 0.714-2.287 9.414 1.122 19.007 1.164 28.475 1.164 9.398 0 18.91-0.048 28.256-1.138 0 0.795-0.234 1.707 0.54 2.159 1.05 0.614 2.101 1.229 3.15 1.843 0.396 0.232 0.505 0.671 0.707 1.081 0.563 1.142 1.127 2.283 1.691 3.425 0.545 1.104 1.09 2.206 1.635 3.31 0.163 0.33 0.669 0.989 0.669 1.369V76.483zM42.349 51.422l-7.136-3.971-7.139 3.971-0.001 7.161-6.422 3.571v7.948l7.137 3.968 6.003-3.337 6.726 3.739 7.135-3.969v-7.948l-6.303-3.505V51.422zM35.213 48.596l6.136 3.414v6.671l-5.836 3.244-6.439-3.581 0.001-6.334L35.213 48.596zM22.651 69.515v-6.772l5.743-3.193 5.983 3.325v6.945l-5.59 3.106L22.651 69.515zM47.651 69.916l-6.135 3.412-5.697-3.166 0.106-0.06v-7.161l5.681-3.159 6.045 3.361V69.916zM56.999 61.592c0.721 0.318 1.498 0.321 2.188 0.082 0.231 0.576 0.601 1.146 1.098 1.673 0.317 0.336 0.687 0.651 1.094 0.941 0 0.001 0 0.001 0 0.002 0.005 0.004 0.012 0.007 0.017 0.011 0.185 0.131 0.382 0.253 0.583 0.372 0.042 0.024 0.081 0.053 0.124 0.077 0.246 0.14 0.504 0.271 0.772 0.39 0.338 0.147 0.676 0.27 1.014 0.37 0 0 0.001-0.001 0.002-0.002 0.669 0.2 1.326 0.299 1.954 0.318-0.002 0.003-0.004 0.007-0.005 0.01 0.041 0.001 0.079-0.003 0.119-0.002 0.115 0.002 0.228-0.002 0.341-0.006 0.208-0.008 0.41-0.025 0.607-0.054 0.076-0.011 0.155-0.015 0.23-0.028 0.252-0.046 0.489-0.115 0.718-0.194 0.078-0.027 0.153-0.058 0.229-0.089 0.204-0.085 0.397-0.181 0.575-0.294 0.025-0.017 0.056-0.028 0.081-0.046 0.196-0.133 0.366-0.289 0.521-0.457 0.041-0.044 0.079-0.09 0.117-0.136 0.001-0.002 0.003-0.004 0.004-0.006l2.091 0.173-1.541-1.394c0.021-0.123 0.042-0.246 0.046-0.371 0-0.03-0.005-0.062-0.005-0.092 0-0.146-0.006-0.292-0.027-0.44-0.001-0.013-0.006-0.025-0.008-0.038-0.133-0.854-0.604-1.735-1.344-2.52-0.193-0.204-0.41-0.399-0.639-0.589 0.689-0.256 1.4-0.639 1.992-1.218 1.812-1.771 2.631-3.873 1.841-4.708-0.004-0.004-0.007-0.008-0.012-0.012-0.809-0.827-2.938-0.055-4.76 1.725-0.031 0.03-0.058 0.063-0.088 0.095-0.068-1.745-0.569-3.24-1.257-3.969-0.294-0.311-0.621-0.482-0.964-0.472-1.156 0.032-2.034 2.12-1.962 4.666 0.021 0.726 0.216 1.403 0.478 2.007-0.831-0.048-1.607 0.05-2.267 0.293-0.139-0.319-0.325-0.619-0.568-0.876-0.266-0.281-0.591-0.517-0.969-0.683-1.514-0.668-3.288 0.018-3.956 1.534-0.502 1.138-0.237 2.423 0.567 3.274C56.299 61.193 56.623 61.427 56.999 61.592zM66.87 59.679c0.369 0.258 0.706 0.543 0.997 0.852 0.126 0.133 0.241 0.269 0.347 0.405 0.011 1.813-1.313 3.43-1.709 3.872-0.589 0.05-1.222-0.001-1.868-0.148C65.438 63.646 66.561 61.883 66.87 59.679zM67.717 55.757c1.688-1.65 3.113-1.89 3.346-1.74 0.144 0.235-0.124 1.652-1.814 3.306-0.674 0.659-1.557 1.011-2.328 1.204-0.009-0.005-0.019-0.009-0.027-0.014-0.153-0.091-0.313-0.174-0.477-0.256C66.615 57.443 66.985 56.472 67.717 55.757zM64.735 51.695c0.018 0.002 0.097 0.038 0.21 0.159 0.458 0.484 0.941 1.728 0.991 3.414 0.025 0.927-0.303 1.803-0.676 2.496-0.023-0.008-0.047-0.018-0.071-0.025-0.073-0.024-0.146-0.038-0.219-0.061-0.183-0.054-0.365-0.109-0.547-0.15-0.352-0.628-0.653-1.382-0.677-2.195C63.679 52.957 64.479 51.752 64.735 51.695zM60.954 60.059c0.205-0.466 0.277-0.954 0.242-1.428 0.278-0.112 0.552-0.179 0.763-0.215 0.563-0.099 1.19-0.089 1.833 0.015 0.027 0.043 0.055 0.09 0.082 0.132-0.024 0.137-0.038 0.277-0.035 0.419 0.055 2.187-1.783 3.978-1.792 3.986-0.112 0.105-0.206 0.225-0.291 0.349-0.268-0.206-0.521-0.423-0.743-0.657-0.456-0.481-0.76-0.989-0.935-1.482C60.443 60.886 60.753 60.515 60.954 60.059zM56.379 58.04c0.445-1.009 1.63-1.468 2.638-1.023 0.247 0.109 0.465 0.263 0.646 0.455 0.555 0.588 0.702 1.444 0.377 2.183-0.445 1.009-1.628 1.469-2.637 1.023-0.246-0.108-0.462-0.261-0.644-0.454C56.203 59.636 56.054 58.779 56.379 58.04zM73.411 51.941l0.342-0.365c0.023 0.022 2.373 2.268 0.141 5.037l-0.389-0.314C75.441 53.897 73.495 52.021 73.411 51.941zM76.05 53.135l0.34-0.365c0.017 0.015 1.595 1.522 0.1 3.378l-0.389-0.314C77.307 54.337 76.102 53.184 76.05 53.135z" fill="#eec372" data-fill-palette-color="accent"></path></svg></g><g transform="matrix(1,0,0,1,269.6509294411785,18.3405)"><svg width="175.00000000000006" viewBox="1.75 -38.5 174.99 51.5" height="51.5" data-palette-color="#eec372"><path d="M40.25-30.45L40.25-8.05Q40.25-6.15 40.43-4.98 40.6-3.8 41.18-3.18 41.75-2.55 42.78-2.3 43.8-2.05 45.5-2L45.5-2 45.5 0 27.15 0 27.15-2Q29-2.05 30.13-2.3 31.25-2.55 31.88-3.15 32.5-3.75 32.7-4.85 32.9-5.95 32.9-7.7L32.9-7.7 32.9-18.15 14.35-18.15 14.35-8.05Q14.35-6.15 14.55-4.98 14.75-3.8 15.35-3.18 15.95-2.55 17.07-2.3 18.2-2.05 20.05-2L20.05-2 20.05 0 1.75 0 1.75-2Q3.45-2.05 4.48-2.3 5.5-2.55 6.05-3.15 6.6-3.75 6.8-4.85 7-5.95 7-7.7L7-7.7 7-30.8Q7-32.55 6.83-33.63 6.65-34.7 6.15-35.33 5.65-35.95 4.73-36.18 3.8-36.4 2.3-36.5L2.3-36.5 2.3-38.5 19.55-38.5 19.55-36.5Q17.85-36.45 16.82-36.2 15.8-35.95 15.25-35.3 14.7-34.65 14.53-33.5 14.35-32.35 14.35-30.45L14.35-30.45 14.35-21.25 32.9-21.25 32.9-30.8Q32.9-32.55 32.7-33.63 32.5-34.7 31.95-35.33 31.4-35.95 30.38-36.18 29.35-36.4 27.65-36.5L27.65-36.5 27.65-38.5 44.95-38.5 44.95-36.5Q43.45-36.45 42.53-36.2 41.6-35.95 41.1-35.3 40.6-34.65 40.43-33.5 40.25-32.35 40.25-30.45L40.25-30.45ZM62.5-27L62.5-27Q65.5-27 68.17-25.98 70.85-24.95 72.87-23.15 74.9-21.35 76.07-18.88 77.25-16.4 77.25-13.45L77.25-13.45Q77.25-10.4 76.07-7.85 74.9-5.3 72.87-3.45 70.85-1.6 68.17-0.55 65.5 0.5 62.5 0.5L62.5 0.5Q59.55 0.5 56.9-0.53 54.25-1.55 52.25-3.4 50.25-5.25 49.1-7.83 47.95-10.4 47.95-13.45L47.95-13.45Q47.95-16.4 49.1-18.9 50.25-21.4 52.25-23.2 54.25-25 56.9-26 59.55-27 62.5-27ZM62.5-24.1L62.5-24.1Q61-24.1 59.75-23.33 58.5-22.55 57.62-21.15 56.75-19.75 56.27-17.78 55.8-15.8 55.8-13.4L55.8-13.4Q55.8-10.9 56.27-8.9 56.75-6.9 57.62-5.5 58.5-4.1 59.72-3.33 60.95-2.55 62.5-2.55L62.5-2.55Q64.05-2.55 65.32-3.33 66.6-4.1 67.5-5.53 68.4-6.95 68.9-8.95 69.4-10.95 69.4-13.4L69.4-13.4Q69.4-15.8 68.9-17.75 68.4-19.7 67.5-21.13 66.6-22.55 65.32-23.33 64.05-24.1 62.5-24.1ZM91.94-15.05L91.94-8.15Q91.94-6.1 92.07-4.93 92.19-3.75 92.62-3.13 93.05-2.5 93.92-2.3 94.8-2.1 96.3-2L96.3-2 96.3 0 80.55 0 80.55-2Q82-2.1 82.87-2.3 83.75-2.5 84.22-3.1 84.69-3.7 84.84-4.8 85-5.9 85-7.8L85-7.8 85-14.05Q85-17 84.89-18.82 84.8-20.65 84.64-21.3L84.64-21.3Q84.5-21.95 84.25-22.38 84-22.8 83.5-23.03 83-23.25 82.25-23.33 81.5-23.4 80.34-23.4L80.34-23.4 80.34-25.1 90-27 90.64-22.6 90.84-22.6Q92.5-24.7 94.75-25.85 97-27 99.69-27L99.69-27Q102.89-27 104.87-26.13 106.84-25.25 108.39-23.2L108.39-23.2Q109.25-22.05 109.89-20.23 110.55-18.4 110.55-15.2L110.55-15.2 110.55-8.15Q110.55-6.1 110.67-4.93 110.8-3.75 111.22-3.13 111.65-2.5 112.5-2.3 113.34-2.1 114.8-2L114.8-2 114.8 0 99.14 0 99.14-2Q100.64-2.05 101.52-2.27 102.39-2.5 102.84-3.1 103.3-3.7 103.44-4.83 103.59-5.95 103.59-7.8L103.59-7.8 103.59-14.6Q103.59-17.15 103.3-18.9 103-20.65 102.32-21.73 101.64-22.8 100.55-23.28 99.44-23.75 97.8-23.75L97.8-23.75Q96.19-23.75 95.05-22.85 93.89-21.95 93.05-20.35L93.05-20.35Q92.59-19.45 92.27-18.03 91.94-16.6 91.94-15.05L91.94-15.05ZM141.04-6.4L142.44-4.65Q137.89 0.5 131.09 0.5L131.09 0.5Q127.99 0.5 125.47-0.48 122.94-1.45 121.14-3.23 119.34-5 118.34-7.45 117.34-9.9 117.34-12.9L117.34-12.9Q117.34-16 118.39-18.57 119.44-21.15 121.37-23.03 123.29-24.9 125.92-25.95 128.54-27 131.69-27L131.69-27Q136.99-27 139.94-24.15 142.89-21.3 142.89-16.15L142.89-16.15Q142.89-15.35 142.64-15.18 142.39-15 141.24-15L141.24-15 125.14-15Q124.94-14.55 124.94-13.35L124.94-13.35Q124.94-8.45 127.07-5.6 129.19-2.75 132.84-2.75L132.84-2.75Q134.94-2.75 137.02-3.7 139.09-4.65 141.04-6.4L141.04-6.4ZM125.49-17.8L132.74-17.8Q134.74-17.8 135.32-18.03 135.89-18.25 135.89-19.1L135.89-19.1Q135.89-21.3 134.64-22.7 133.39-24.1 131.49-24.1L131.49-24.1Q129.34-24.1 127.67-22.33 125.99-20.55 125.49-17.8L125.49-17.8ZM169.84-16.15L158.39 7.85Q157.84 8.95 157.01 9.9 156.19 10.85 155.16 11.53 154.14 12.2 153.04 12.6 151.94 13 150.84 13L150.84 13Q149.19 13 148.19 12.2 147.19 11.4 147.19 10.05L147.19 10.05Q147.19 8.8 148.06 8.1 148.94 7.4 150.89 7.25L150.89 7.25Q155.34 6.9 156.64 4.45L156.64 4.45 157.99 1.85 149.14-20.05Q148.54-21.5 148.11-22.35 147.69-23.2 147.19-23.68 146.69-24.15 146.04-24.3 145.39-24.45 144.44-24.5L144.44-24.5 144.44-26.5 159.59-26.5 159.59-24.5Q157.64-24.5 156.86-24.13 156.09-23.75 156.09-22.75L156.09-22.75Q156.09-22.35 156.22-21.83 156.34-21.3 156.54-20.75L156.54-20.75 161.64-6.15 161.84-6.15 166.14-15.9Q166.79-17.45 167.24-18.48 167.69-19.5 167.91-20.23 168.14-20.95 168.24-21.4 168.34-21.85 168.34-22.3L168.34-22.3Q168.34-23.6 167.62-24.05 166.89-24.5 164.69-24.5L164.69-24.5 164.69-26.5 176.74-26.5 176.74-24.5Q175.74-24.5 175.04-24.23 174.34-23.95 173.62-23.1 172.89-22.25 172.01-20.58 171.14-18.9 169.84-16.15L169.84-16.15Z" opacity="1" transform="matrix(1,0,0,1,0,0)" fill="#eec372" class="undefined-gc-1"></path></svg></g></svg></g></svg></g></svg></g></svg></g></svg></g><defs></defs></svg><rect width="395.52" height="78.43759410068614" fill="none" stroke="none" visibility="hidden"></rect></g></svg></g></svg>